<?xml version="1.0" encoding="UTF-8" standalone="no"?>
<svg
   xmlns:ns1="http://www.iki.fi/pav/software/textext/"
   xmlns:dc="http://purl.org/dc/elements/1.1/"
   xmlns:cc="http://creativecommons.org/ns#"
   xmlns:rdf="http://www.w3.org/1999/02/22-rdf-syntax-ns#"
   xmlns:svg="http://www.w3.org/2000/svg"
   xmlns="http://www.w3.org/2000/svg"
   xmlns:sodipodi="http://sodipodi.sourceforge.net/DTD/sodipodi-0.dtd"
   xmlns:inkscape="http://www.inkscape.org/namespaces/inkscape"
   id="svg8"
   version="1.1"
   viewBox="0 0 210 297"
   height="297mm"
   width="210mm"
   inkscape:version="1.0 (4035a4fb49, 2020-05-01)"
   sodipodi:docname="fig.svg">
  <defs
     id="defs2">
    <marker
       inkscape:isstock="true"
       style="overflow:visible"
       id="DotL"
       refX="0.0"
       refY="0.0"
       orient="auto"
       inkscape:stockid="DotL">
      <path
         transform="scale(0.8) translate(7.4, 1)"
         style="fill-rule:evenodd;stroke:#000000;stroke-width:1pt;stroke-opacity:1;fill:#000000;fill-opacity:1"
         d="M -2.5,-1.0 C -2.5,1.7600000 -4.7400000,4.0 -7.5,4.0 C -10.260000,4.0 -12.5,1.7600000 -12.5,-1.0 C -12.5,-3.7600000 -10.260000,-6.0 -7.5,-6.0 C -4.7400000,-6.0 -2.5,-3.7600000 -2.5,-1.0 z "
         id="path1173" />
    </marker>
  </defs>
  <sodipodi:namedview
     inkscape:window-maximized="1"
     inkscape:window-y="-9"
     inkscape:window-x="-9"
     inkscape:window-height="1001"
     inkscape:window-width="1920"
     inkscape:object-nodes="false"
     showguides="false"
     inkscape:snap-object-midpoints="false"
     inkscape:object-paths="true"
     showgrid="false"
     inkscape:document-rotation="0"
     inkscape:current-layer="layer1"
     inkscape:document-units="mm"
     inkscape:cy="421.58096"
     inkscape:cx="409.18534"
     inkscape:zoom="1.4"
     inkscape:pageshadow="2"
     inkscape:pageopacity="0.0"
     borderopacity="1.0"
     bordercolor="#666666"
     pagecolor="#ffffff"
     id="base" />
  <metadata
     id="metadata5">
    <rdf:RDF>
      <cc:Work
         rdf:about="">
        <dc:format>image/svg+xml</dc:format>
        <dc:type
           rdf:resource="http://purl.org/dc/dcmitype/StillImage" />
        <dc:title />
      </cc:Work>
    </rdf:RDF>
  </metadata>
  <g
     id="layer1"
     inkscape:groupmode="layer"
     inkscape:label="Layer 1">
    <circle
       r="50.647575"
       cy="74.701836"
       cx="110.24868"
       id="path10"
       style="fill:none;stroke:#000000;stroke-width:0.265;stroke-dasharray:none;paint-order:markers stroke fill;stroke-miterlimit:4;stroke-dashoffset:0" />
    <path
       id="path835"
       d="M 110.24868,74.701836 146.9986,109.55323"
       style="fill:none;stroke:#000000;stroke-width:0.26458299;stroke-linecap:butt;stroke-linejoin:miter;stroke-opacity:1;stroke-miterlimit:4;stroke-dasharray:1.05833194,0.52916597;stroke-dashoffset:0" />
    <path
       sodipodi:nodetypes="cc"
       id="path837"
       d="m 146.9986,109.55323 12.02676,48.13579"
       style="fill:none;stroke:#000000;stroke-width:0.264583px;stroke-linecap:butt;stroke-linejoin:miter;stroke-opacity:1;marker-end:url(#DotL)" />
    <path
       id="path839"
       d="M 146.9986,109.55323 Z"
       style="fill:none;stroke:#000000;stroke-width:0.264583px;stroke-linecap:butt;stroke-linejoin:miter;stroke-opacity:1" />
    <path
       id="path841"
       d="m 146.9986,109.55323 v 19.90361"
       style="fill:none;stroke:#000000;stroke-width:0.26458299;stroke-linecap:butt;stroke-linejoin:miter;stroke-opacity:1;stroke-miterlimit:4;stroke-dasharray:0.26458299,0.26458299;stroke-dashoffset:0" />
    <path
       style="fill:none;stroke:#000000;stroke-width:0.26458299;stroke-linecap:butt;stroke-linejoin:miter;stroke-opacity:1;stroke-miterlimit:4;stroke-dasharray:0.26458299,0.26458299;stroke-dashoffset:0"
       d="m 146.9986,89.64962 v 19.90361"
       id="path841-3" />
    <path
       sodipodi:nodetypes="cc"
       id="path865"
       d="m 146.9986,115.47172 c 0,0 0.87904,0.11356 1.37713,-0.40665"
       style="fill:none;stroke:#000000;stroke-width:0.264583px;stroke-linecap:butt;stroke-linejoin:miter;stroke-opacity:1" />
    <g
       transform="matrix(0.51278181,0,0,0.51278181,147.50625,120.81031)"
       ns1:version="1.1.0"
       ns1:texconverter="pdflatex"
       ns1:pdfconverter="inkscape"
       ns1:text="$\\theta$"
       ns1:preamble="C:\\Users\\Windows10\\AppData\\Roaming\\inkscape\\extensions\\textext\\default_packages.tex"
       ns1:scale="3.5737206736378577"
       ns1:alignment="middle center"
       ns1:jacobian_sqrt="1.26073"
       id="g888">
      <defs
         id="id-96f20571-38b0-409c-944a-a9ad2e49ee4a">
        <g
           id="id-53ca8da4-05fb-4867-ab1e-ba9e4969bca3">
          <symbol
             id="id-8e513735-f1d6-478c-9c37-3e23b30066c5"
             overflow="visible">
            <path
               id="id-3d44bd9f-2c30-4cac-bd34-6c7aec24ed96"
               d=""
               style="stroke:none" />
          </symbol>
          <symbol
             id="id-d7841980-c9b1-4d2f-af52-0eedd5bafc45"
             overflow="visible">
            <path
               id="id-4038cead-9fdb-480c-a280-a1768ae0aa42"
               d="m 4.53125,-4.984375 c 0,-0.65625 -0.171875,-2.046875 -1.1875,-2.046875 -1.390625,0 -2.921875,2.8125 -2.921875,5.09375 0,0.9375 0.28125,2.046875 1.1875,2.046875 1.40625,0 2.921875,-2.859375 2.921875,-5.09375 z M 1.46875,-3.625 C 1.640625,-4.25 1.84375,-5.046875 2.25,-5.765625 2.515625,-6.25 2.875,-6.8125 3.328125,-6.8125 c 0.484375,0 0.546875,0.640625 0.546875,1.203125 0,0.5 -0.078125,1 -0.3125,1.984375 z m 2,0.328125 C 3.359375,-2.84375 3.15625,-2 2.765625,-1.28125 c -0.34375,0.6875 -0.71875,1.171875 -1.15625,1.171875 -0.328125,0 -0.53125,-0.296875 -0.53125,-1.21875 0,-0.421875 0.0625,-1 0.3125,-1.96875 z m 0,0"
               style="stroke:none" />
          </symbol>
        </g>
      </defs>
      <g
         transform="translate(-149.134,-127.734)"
         id="id-6bbc8f3f-d3db-472f-abd8-876daf8f0e14">
        <g
           id="id-df09d5b3-acc3-4fbe-86c0-6e93ff309c6c"
           style="fill:#000000;fill-opacity:1">
          <g
             transform="translate(148.712,134.765)"
             id="g884">
            <path
               id="id-a4d3ac3c-96fd-4154-a7dc-c1648f25292e"
               d="m 4.53125,-4.984375 c 0,-0.65625 -0.171875,-2.046875 -1.1875,-2.046875 -1.390625,0 -2.921875,2.8125 -2.921875,5.09375 0,0.9375 0.28125,2.046875 1.1875,2.046875 1.40625,0 2.921875,-2.859375 2.921875,-5.09375 z M 1.46875,-3.625 C 1.640625,-4.25 1.84375,-5.046875 2.25,-5.765625 2.515625,-6.25 2.875,-6.8125 3.328125,-6.8125 c 0.484375,0 0.546875,0.640625 0.546875,1.203125 0,0.5 -0.078125,1 -0.3125,1.984375 z m 2,0.328125 C 3.359375,-2.84375 3.15625,-2 2.765625,-1.28125 c -0.34375,0.6875 -0.71875,1.171875 -1.15625,1.171875 -0.328125,0 -0.53125,-0.296875 -0.53125,-1.21875 0,-0.421875 0.0625,-1 0.3125,-1.96875 z m 0,0"
               style="stroke:none" />
          </g>
        </g>
      </g>
    </g>
    <path
       style="fill:none;stroke:#000000;stroke-width:0.264583px;stroke-linecap:butt;stroke-linejoin:miter;stroke-opacity:1"
       d="M 105.83873,80.047223 Z"
       id="path839-1" />
    <path
       style="fill:none;stroke:#000000;stroke-width:0.264583;stroke-linecap:butt;stroke-linejoin:miter;stroke-miterlimit:4;stroke-dasharray:0.264583, 0.264583;stroke-dashoffset:0;stroke-opacity:1"
       d="M 110.27578,74.655737 V 94.559348"
       id="path841-4" />
    <path
       id="path841-3-9"
       d="m 110.27995,55.088181 v 19.90361"
       style="fill:none;stroke:#000000;stroke-width:0.264583;stroke-linecap:butt;stroke-linejoin:miter;stroke-miterlimit:4;stroke-dasharray:0.264583, 0.264583;stroke-dashoffset:0;stroke-opacity:1" />
    <path
       sodipodi:nodetypes="cc"
       id="path924"
       d="m 110.27578,79.913587 c -0.0196,-0.03994 2.00802,0.240579 3.60011,-1.771925"
       style="fill:none;stroke:#000000;stroke-width:0.264583px;stroke-linecap:butt;stroke-linejoin:miter;stroke-opacity:1" />
    <g
       transform="matrix(0.55979173,0,0,0.55979173,111.46402,80.991429)"
       ns1:version="1.1.0"
       ns1:texconverter="pdflatex"
       ns1:pdfconverter="inkscape"
       ns1:text="$\\varphi$"
       ns1:preamble="C:\\Users\\Windows10\\AppData\\Roaming\\inkscape\\extensions\\textext\\default_packages.tex"
       ns1:scale="3.5737206736378577"
       ns1:alignment="middle center"
       ns1:inkscapeversion="1.0"
       ns1:jacobian_sqrt="1.26073"
       id="g962">
      <defs
         id="id-73f90e63-b2fc-47ec-9dd4-06e869d61496">
        <g
           id="id-4bd71bc4-5c41-43e5-8971-597f2ae931d2">
          <symbol
             id="id-77a51ea0-2851-425b-8030-b3773f71fb3a"
             overflow="visible">
            <path
               id="id-97b34c43-f947-4515-8a4c-dde1cc9ff44f"
               d=""
               style="stroke:none" />
          </symbol>
          <symbol
             id="id-c6045ed4-8958-4606-8f3a-1c889dcc317c"
             overflow="visible">
            <path
               id="id-9ae76c31-5345-4866-b509-772b1aec69ee"
               d="M 1.6875,1.6875 C 1.65625,1.828125 1.640625,1.84375 1.640625,1.890625 c 0,0.21875 0.1875,0.28125 0.296875,0.28125 0.046875,0 0.265625,-0.03125 0.359375,-0.265625 C 2.328125,1.828125 2.375,1.5 2.65625,0.09375 c 0.078125,0 0.15625,0.015625 0.328125,0.015625 1.65625,0 3.1875,-1.5625 3.1875,-3.140625 0,-0.78125 -0.390625,-1.375 -1.140625,-1.375 -1.4375,0 -2.046875,1.9375 -2.640625,3.875 C 1.3125,-0.734375 0.75,-1.28125 0.75,-2 c 0,-0.28125 0.234375,-1.375 0.828125,-2.0625 0.09375,-0.09375 0.09375,-0.109375 0.09375,-0.140625 0,-0.03125 -0.03125,-0.09375 -0.125,-0.09375 -0.28125,0 -1.046875,1.453125 -1.046875,2.40625 0,0.9375 0.65625,1.65625 1.71875,1.90625 z m 1.390625,-2.15625 c -0.09375,0 -0.109375,0 -0.1875,-0.015625 -0.125,0 -0.125,0 -0.125,-0.03125 0,-0.015625 0.171875,-0.9375 0.1875,-1.078125 0.3125,-1.28125 1.09375,-2.234375 1.984375,-2.234375 0.6875,0 0.953125,0.53125 0.953125,1.015625 0,1.125 -1.28125,2.34375 -2.8125,2.34375 z m 0,0"
               style="stroke:none" />
          </symbol>
        </g>
      </defs>
      <g
         transform="translate(-149.212,-130.359)"
         id="id-7ef96b16-928a-4766-9cf2-663b4b6a7cb7">
        <g
           id="id-fc7cdaad-55f5-4bfd-a58d-ca555444b7a9"
           style="fill:#000000;fill-opacity:1">
          <g
             transform="translate(148.712,134.765)"
             id="g958">
            <path
               id="id-f8138e43-2925-495e-828b-f236c15df0e3"
               d="M 1.6875,1.6875 C 1.65625,1.828125 1.640625,1.84375 1.640625,1.890625 c 0,0.21875 0.1875,0.28125 0.296875,0.28125 0.046875,0 0.265625,-0.03125 0.359375,-0.265625 C 2.328125,1.828125 2.375,1.5 2.65625,0.09375 c 0.078125,0 0.15625,0.015625 0.328125,0.015625 1.65625,0 3.1875,-1.5625 3.1875,-3.140625 0,-0.78125 -0.390625,-1.375 -1.140625,-1.375 -1.4375,0 -2.046875,1.9375 -2.640625,3.875 C 1.3125,-0.734375 0.75,-1.28125 0.75,-2 c 0,-0.28125 0.234375,-1.375 0.828125,-2.0625 0.09375,-0.09375 0.09375,-0.109375 0.09375,-0.140625 0,-0.03125 -0.03125,-0.09375 -0.125,-0.09375 -0.28125,0 -1.046875,1.453125 -1.046875,2.40625 0,0.9375 0.65625,1.65625 1.71875,1.90625 z m 1.390625,-2.15625 c -0.09375,0 -0.109375,0 -0.1875,-0.015625 -0.125,0 -0.125,0 -0.125,-0.03125 0,-0.015625 0.171875,-0.9375 0.1875,-1.078125 0.3125,-1.28125 1.09375,-2.234375 1.984375,-2.234375 0.6875,0 0.953125,0.53125 0.953125,1.015625 0,1.125 -1.28125,2.34375 -2.8125,2.34375 z m 0,0"
               style="stroke:none" />
          </g>
        </g>
      </g>
    </g>
    <g
       transform="matrix(0.62413852,0,0,0.62413852,128.88258,84.839872)"
       ns1:version="1.1.0"
       ns1:texconverter="pdflatex"
       ns1:pdfconverter="inkscape"
       ns1:text="$R$"
       ns1:preamble="C:\\Users\\Windows10\\AppData\\Roaming\\inkscape\\extensions\\textext\\default_packages.tex"
       ns1:scale="3.5737206736378577"
       ns1:alignment="middle center"
       ns1:inkscapeversion="1.0"
       ns1:jacobian_sqrt="1.26073"
       id="g1024">
      <defs
         id="id-0be5e580-9b26-41d6-8a61-2973e76636a1">
        <g
           id="id-c30a618b-c002-447d-a256-244976f875e7">
          <symbol
             id="id-63bd4054-4d8a-4d64-a1a9-2d4617af651f"
             overflow="visible">
            <path
               id="id-e0f940eb-acd5-452e-8d44-a4527299eb86"
               d=""
               style="stroke:none" />
          </symbol>
          <symbol
             id="id-1eec987c-f65f-410a-a6bd-d84e8851264b"
             overflow="visible">
            <path
               id="id-64517907-a908-4eca-aadf-bc137685d82e"
               d="m 3.734375,-6.125 c 0.0625,-0.234375 0.09375,-0.328125 0.28125,-0.359375 C 4.109375,-6.5 4.421875,-6.5 4.625,-6.5 c 0.703125,0 1.8125,0 1.8125,0.984375 0,0.34375 -0.15625,1.03125 -0.546875,1.421875 -0.265625,0.25 -0.78125,0.578125 -1.6875,0.578125 H 3.09375 Z m 1.4375,2.734375 c 1.015625,-0.21875 2.1875,-0.921875 2.1875,-1.921875 0,-0.859375 -0.890625,-1.5 -2.203125,-1.5 H 2.328125 c -0.203125,0 -0.296875,0 -0.296875,0.203125 C 2.03125,-6.5 2.125,-6.5 2.3125,-6.5 c 0.015625,0 0.203125,0 0.375,0.015625 0.1875,0.03125 0.265625,0.03125 0.265625,0.171875 0,0.03125 0,0.0625 -0.03125,0.1875 l -1.34375,5.34375 C 1.484375,-0.390625 1.46875,-0.3125 0.671875,-0.3125 0.5,-0.3125 0.40625,-0.3125 0.40625,-0.109375 0.40625,0 0.53125,0 0.546875,0 c 0.28125,0 0.984375,-0.03125 1.25,-0.03125 0.28125,0 1,0.03125 1.28125,0.03125 0.078125,0 0.1875,0 0.1875,-0.203125 0,-0.109375 -0.078125,-0.109375 -0.28125,-0.109375 -0.359375,0 -0.640625,0 -0.640625,-0.171875 0,-0.0625 0.015625,-0.109375 0.03125,-0.171875 l 0.65625,-2.640625 h 1.1875 c 0.90625,0 1.078125,0.5625 1.078125,0.90625 0,0.140625 -0.078125,0.453125 -0.140625,0.6875 C 5.09375,-1.421875 5,-1.0625 5,-0.859375 5,0.21875 6.203125,0.21875 6.328125,0.21875 c 0.84375,0 1.203125,-1 1.203125,-1.140625 0,-0.125 -0.109375,-0.125 -0.125,-0.125 -0.09375,0 -0.109375,0.0625 -0.125,0.140625 C 7.03125,-0.171875 6.59375,0 6.375,0 6.046875,0 5.96875,-0.21875 5.96875,-0.609375 c 0,-0.3125 0.0625,-0.8125 0.109375,-1.140625 0.015625,-0.140625 0.03125,-0.328125 0.03125,-0.46875 0,-0.765625 -0.671875,-1.078125 -0.9375,-1.171875 z m 0,0"
               style="stroke:none" />
          </symbol>
        </g>
      </defs>
      <g
         transform="translate(-149.118,-127.953)"
         id="id-164df628-9e8e-406d-bcbd-a102982e370c">
        <g
           id="id-798334bb-c361-49d2-8b67-841e04d95d22"
           style="fill:#000000;fill-opacity:1">
          <g
             transform="translate(148.712,134.765)"
             id="g1020">
            <path
               id="id-93338997-7e1a-45e2-8f08-823fb8aec947"
               d="m 3.734375,-6.125 c 0.0625,-0.234375 0.09375,-0.328125 0.28125,-0.359375 C 4.109375,-6.5 4.421875,-6.5 4.625,-6.5 c 0.703125,0 1.8125,0 1.8125,0.984375 0,0.34375 -0.15625,1.03125 -0.546875,1.421875 -0.265625,0.25 -0.78125,0.578125 -1.6875,0.578125 H 3.09375 Z m 1.4375,2.734375 c 1.015625,-0.21875 2.1875,-0.921875 2.1875,-1.921875 0,-0.859375 -0.890625,-1.5 -2.203125,-1.5 H 2.328125 c -0.203125,0 -0.296875,0 -0.296875,0.203125 C 2.03125,-6.5 2.125,-6.5 2.3125,-6.5 c 0.015625,0 0.203125,0 0.375,0.015625 0.1875,0.03125 0.265625,0.03125 0.265625,0.171875 0,0.03125 0,0.0625 -0.03125,0.1875 l -1.34375,5.34375 C 1.484375,-0.390625 1.46875,-0.3125 0.671875,-0.3125 0.5,-0.3125 0.40625,-0.3125 0.40625,-0.109375 0.40625,0 0.53125,0 0.546875,0 c 0.28125,0 0.984375,-0.03125 1.25,-0.03125 0.28125,0 1,0.03125 1.28125,0.03125 0.078125,0 0.1875,0 0.1875,-0.203125 0,-0.109375 -0.078125,-0.109375 -0.28125,-0.109375 -0.359375,0 -0.640625,0 -0.640625,-0.171875 0,-0.0625 0.015625,-0.109375 0.03125,-0.171875 l 0.65625,-2.640625 h 1.1875 c 0.90625,0 1.078125,0.5625 1.078125,0.90625 0,0.140625 -0.078125,0.453125 -0.140625,0.6875 C 5.09375,-1.421875 5,-1.0625 5,-0.859375 5,0.21875 6.203125,0.21875 6.328125,0.21875 c 0.84375,0 1.203125,-1 1.203125,-1.140625 0,-0.125 -0.109375,-0.125 -0.125,-0.125 -0.09375,0 -0.109375,0.0625 -0.125,0.140625 C 7.03125,-0.171875 6.59375,0 6.375,0 6.046875,0 5.96875,-0.21875 5.96875,-0.609375 c 0,-0.3125 0.0625,-0.8125 0.109375,-1.140625 0.015625,-0.140625 0.03125,-0.328125 0.03125,-0.46875 0,-0.765625 -0.671875,-1.078125 -0.9375,-1.171875 z m 0,0"
               style="stroke:none" />
          </g>
        </g>
      </g>
    </g>
    <g
       transform="matrix(0.71178472,0,0,0.71178472,156.25578,130.00842)"
       ns1:version="1.1.0"
       ns1:texconverter="pdflatex"
       ns1:pdfconverter="inkscape"
       ns1:text="$l$"
       ns1:preamble="C:\\Users\\Windows10\\AppData\\Roaming\\inkscape\\extensions\\textext\\default_packages.tex"
       ns1:scale="3.5737206736378577"
       ns1:alignment="middle center"
       ns1:inkscapeversion="1.0"
       ns1:jacobian_sqrt="1.26073"
       id="g1097">
      <defs
         id="id-08a1b48f-191a-48ab-8e03-f862b2f5229a">
        <g
           id="id-a5a68f1c-da9f-42ee-beda-09c7694bd901">
          <symbol
             id="id-6524c0ba-7c31-426f-abbf-fc82de1bbf7a"
             overflow="visible">
            <path
               id="id-e2ec120f-2962-4b66-bcf1-0a7c7ee7dd5a"
               d=""
               style="stroke:none" />
          </symbol>
          <symbol
             id="id-a2ed7a2d-4ba1-413d-a538-bd1ec8614e25"
             overflow="visible">
            <path
               id="id-39a3a886-62e3-4b12-8e9e-6a8889f9dae3"
               d="m 2.578125,-6.8125 c 0,0 0,-0.109375 -0.140625,-0.109375 -0.21875,0 -0.953125,0.078125 -1.21875,0.109375 -0.078125,0 -0.1875,0.015625 -0.1875,0.203125 0,0.109375 0.109375,0.109375 0.25,0.109375 0.484375,0 0.5,0.09375 0.5,0.171875 L 1.75,-6.125 0.484375,-1.140625 C 0.453125,-1.03125 0.4375,-0.96875 0.4375,-0.8125 c 0,0.578125 0.4375,0.921875 0.90625,0.921875 0.328125,0 0.578125,-0.203125 0.75,-0.5625 0.171875,-0.375 0.296875,-0.953125 0.296875,-0.96875 0,-0.109375 -0.09375,-0.109375 -0.125,-0.109375 -0.09375,0 -0.109375,0.046875 -0.125,0.1875 C 1.96875,-0.703125 1.78125,-0.109375 1.375,-0.109375 c -0.296875,0 -0.296875,-0.3125 -0.296875,-0.453125 0,-0.25 0.015625,-0.296875 0.0625,-0.484375 z m 0,0"
               style="stroke:none" />
          </symbol>
        </g>
      </defs>
      <g
         transform="translate(-149.15,-127.843)"
         id="id-d5264859-0f1b-4cb2-adf4-ee4d9df48fc0">
        <g
           id="id-b5dba45b-e6cd-4964-bb74-209bb465e1af"
           style="fill:#000000;fill-opacity:1">
          <g
             transform="translate(148.712,134.765)"
             id="g1093">
            <path
               id="id-96767fef-caaa-4c5b-bb52-cbbba4ed9c77"
               d="m 2.578125,-6.8125 c 0,0 0,-0.109375 -0.140625,-0.109375 -0.21875,0 -0.953125,0.078125 -1.21875,0.109375 -0.078125,0 -0.1875,0.015625 -0.1875,0.203125 0,0.109375 0.109375,0.109375 0.25,0.109375 0.484375,0 0.5,0.09375 0.5,0.171875 L 1.75,-6.125 0.484375,-1.140625 C 0.453125,-1.03125 0.4375,-0.96875 0.4375,-0.8125 c 0,0.578125 0.4375,0.921875 0.90625,0.921875 0.328125,0 0.578125,-0.203125 0.75,-0.5625 0.171875,-0.375 0.296875,-0.953125 0.296875,-0.96875 0,-0.109375 -0.09375,-0.109375 -0.125,-0.109375 -0.09375,0 -0.109375,0.046875 -0.125,0.1875 C 1.96875,-0.703125 1.78125,-0.109375 1.375,-0.109375 c -0.296875,0 -0.296875,-0.3125 -0.296875,-0.453125 0,-0.25 0.015625,-0.296875 0.0625,-0.484375 z m 0,0"
               style="stroke:none" />
          </g>
        </g>
      </g>
    </g>
    <g
       transform="matrix(0.84220965,0,0,0.84220965,147.16794,155.18792)"
       ns1:version="1.1.0"
       ns1:texconverter="pdflatex"
       ns1:pdfconverter="inkscape"
       ns1:text="$m$"
       ns1:preamble="C:\\Users\\Windows10\\AppData\\Roaming\\inkscape\\extensions\\textext\\default_packages.tex"
       ns1:scale="3.5737206736378577"
       ns1:alignment="middle center"
       ns1:inkscapeversion="1.0"
       ns1:jacobian_sqrt="1.26073"
       id="g1459">
      <defs
         id="id-d44a85f8-154f-43ec-89ec-13ffa13691e1">
        <g
           id="id-aac7a773-81f0-4908-afa2-8ca0b6acb144">
          <symbol
             id="id-66f031e3-174b-4c60-b723-f82e0ed31d0f"
             overflow="visible">
            <path
               id="id-c4fc14db-c2a5-4c99-8ddc-bb375687fee0"
               d=""
               style="stroke:none" />
          </symbol>
          <symbol
             id="id-6f0209bc-3c97-4a32-b6de-de2303cbaf38"
             overflow="visible">
            <path
               id="id-3fbc9344-52ad-447b-a078-539cb92dd910"
               d="m 0.875,-0.59375 c -0.03125,0.15625 -0.09375,0.390625 -0.09375,0.4375 0,0.171875 0.140625,0.265625 0.296875,0.265625 0.125,0 0.296875,-0.078125 0.375,-0.28125 0,-0.015625 0.125,-0.484375 0.1875,-0.734375 l 0.21875,-0.890625 C 1.90625,-2.03125 1.96875,-2.25 2.03125,-2.46875 c 0.03125,-0.171875 0.109375,-0.46875 0.125,-0.5 0.140625,-0.3125 0.671875,-1.21875 1.625,-1.21875 0.453125,0 0.53125,0.375 0.53125,0.703125 0,0.25 -0.0625,0.53125 -0.140625,0.828125 L 3.890625,-1.5 3.6875,-0.75 c -0.03125,0.203125 -0.125,0.546875 -0.125,0.59375 0,0.171875 0.140625,0.265625 0.28125,0.265625 0.3125,0 0.375,-0.25 0.453125,-0.5625 0.140625,-0.5625 0.515625,-2.015625 0.59375,-2.40625 0.03125,-0.125 0.5625,-1.328125 1.65625,-1.328125 0.421875,0 0.53125,0.34375 0.53125,0.703125 0,0.5625 -0.421875,1.703125 -0.625,2.234375 -0.078125,0.234375 -0.125,0.34375 -0.125,0.546875 0,0.46875 0.34375,0.8125 0.8125,0.8125 0.9375,0 1.3125,-1.453125 1.3125,-1.53125 0,-0.109375 -0.09375,-0.109375 -0.125,-0.109375 -0.09375,0 -0.09375,0.03125 -0.140625,0.1875 -0.15625,0.53125 -0.46875,1.234375 -1.015625,1.234375 -0.171875,0 -0.25,-0.09375 -0.25,-0.328125 0,-0.25 0.09375,-0.484375 0.1875,-0.703125 0.1875,-0.53125 0.609375,-1.625 0.609375,-2.203125 0,-0.640625 -0.40625,-1.0625 -1.15625,-1.0625 -0.734375,0 -1.25,0.4375 -1.625,0.96875 0,-0.125 -0.03125,-0.46875 -0.3125,-0.703125 -0.25,-0.21875 -0.5625,-0.265625 -0.8125,-0.265625 -0.90625,0 -1.390625,0.640625 -1.5625,0.875 -0.046875,-0.578125 -0.46875,-0.875 -0.921875,-0.875 -0.453125,0 -0.640625,0.390625 -0.734375,0.5625 -0.171875,0.359375 -0.296875,0.9375 -0.296875,0.96875 0,0.109375 0.09375,0.109375 0.109375,0.109375 0.109375,0 0.109375,-0.015625 0.171875,-0.234375 0.171875,-0.703125 0.375,-1.1875 0.734375,-1.1875 0.15625,0 0.296875,0.078125 0.296875,0.453125 0,0.21875 -0.03125,0.328125 -0.15625,0.84375 z m 0,0"
               style="stroke:none" />
          </symbol>
        </g>
      </defs>
      <g
         transform="translate(-149.009,-130.359)"
         id="id-93d88ca1-339f-426a-84ef-053d045f3e52">
        <g
           id="id-aa2238d2-1e9a-4f80-afee-4a602612790f"
           style="fill:#000000;fill-opacity:1">
          <g
             transform="translate(148.712,134.765)"
             id="g1455">
            <path
               id="id-e2b5c104-bc02-424b-b2d2-608e27a49d1e"
               d="m 0.875,-0.59375 c -0.03125,0.15625 -0.09375,0.390625 -0.09375,0.4375 0,0.171875 0.140625,0.265625 0.296875,0.265625 0.125,0 0.296875,-0.078125 0.375,-0.28125 0,-0.015625 0.125,-0.484375 0.1875,-0.734375 l 0.21875,-0.890625 C 1.90625,-2.03125 1.96875,-2.25 2.03125,-2.46875 c 0.03125,-0.171875 0.109375,-0.46875 0.125,-0.5 0.140625,-0.3125 0.671875,-1.21875 1.625,-1.21875 0.453125,0 0.53125,0.375 0.53125,0.703125 0,0.25 -0.0625,0.53125 -0.140625,0.828125 L 3.890625,-1.5 3.6875,-0.75 c -0.03125,0.203125 -0.125,0.546875 -0.125,0.59375 0,0.171875 0.140625,0.265625 0.28125,0.265625 0.3125,0 0.375,-0.25 0.453125,-0.5625 0.140625,-0.5625 0.515625,-2.015625 0.59375,-2.40625 0.03125,-0.125 0.5625,-1.328125 1.65625,-1.328125 0.421875,0 0.53125,0.34375 0.53125,0.703125 0,0.5625 -0.421875,1.703125 -0.625,2.234375 -0.078125,0.234375 -0.125,0.34375 -0.125,0.546875 0,0.46875 0.34375,0.8125 0.8125,0.8125 0.9375,0 1.3125,-1.453125 1.3125,-1.53125 0,-0.109375 -0.09375,-0.109375 -0.125,-0.109375 -0.09375,0 -0.09375,0.03125 -0.140625,0.1875 -0.15625,0.53125 -0.46875,1.234375 -1.015625,1.234375 -0.171875,0 -0.25,-0.09375 -0.25,-0.328125 0,-0.25 0.09375,-0.484375 0.1875,-0.703125 0.1875,-0.53125 0.609375,-1.625 0.609375,-2.203125 0,-0.640625 -0.40625,-1.0625 -1.15625,-1.0625 -0.734375,0 -1.25,0.4375 -1.625,0.96875 0,-0.125 -0.03125,-0.46875 -0.3125,-0.703125 -0.25,-0.21875 -0.5625,-0.265625 -0.8125,-0.265625 -0.90625,0 -1.390625,0.640625 -1.5625,0.875 -0.046875,-0.578125 -0.46875,-0.875 -0.921875,-0.875 -0.453125,0 -0.640625,0.390625 -0.734375,0.5625 -0.171875,0.359375 -0.296875,0.9375 -0.296875,0.96875 0,0.109375 0.09375,0.109375 0.109375,0.109375 0.109375,0 0.109375,-0.015625 0.171875,-0.234375 0.171875,-0.703125 0.375,-1.1875 0.734375,-1.1875 0.15625,0 0.296875,0.078125 0.296875,0.453125 0,0.21875 -0.03125,0.328125 -0.15625,0.84375 z m 0,0"
               style="stroke:none" />
          </g>
        </g>
      </g>
    </g>
    <g
       transform="matrix(0.76138531,0,0,0.76138531,83.521059,75.49875)"
       ns1:version="1.1.0"
       ns1:texconverter="pdflatex"
       ns1:pdfconverter="inkscape"
       ns1:text="$M$"
       ns1:preamble="C:\\Users\\Windows10\\AppData\\Roaming\\inkscape\\extensions\\textext\\default_packages.tex"
       ns1:scale="3.5737206736378577"
       ns1:alignment="middle center"
       ns1:inkscapeversion="1.0"
       ns1:jacobian_sqrt="1.26073"
       id="g1556">
      <defs
         id="id-71527100-e956-4adb-8823-30c522c51ec6">
        <g
           id="id-2ac37deb-3f67-482b-9278-f51d9327be6e">
          <symbol
             id="id-2cb06cf4-fc2e-4520-9bf4-39724d6599d3"
             overflow="visible">
            <path
               id="id-ccb73443-6a35-4ea5-997d-8375bd4fd51c"
               d=""
               style="stroke:none" />
          </symbol>
          <symbol
             id="id-34c506c0-80fd-42b6-b49f-5a50bf0d5ce4"
             overflow="visible">
            <path
               id="id-8ebe1535-14ab-414e-a861-a84125fed81f"
               d="M 9.234375,-6.046875 C 9.328125,-6.40625 9.34375,-6.5 10.09375,-6.5 c 0.21875,0 0.3125,0 0.3125,-0.203125 0,-0.109375 -0.09375,-0.109375 -0.265625,-0.109375 h -1.3125 c -0.265625,0 -0.28125,0 -0.390625,0.1875 L 4.796875,-0.9375 4.015625,-6.578125 C 3.984375,-6.8125 3.96875,-6.8125 3.703125,-6.8125 H 2.34375 c -0.1875,0 -0.296875,0 -0.296875,0.1875 0,0.125 0.09375,0.125 0.28125,0.125 0.140625,0 0.3125,0.015625 0.4375,0.015625 0.15625,0.03125 0.21875,0.046875 0.21875,0.171875 0,0.03125 -0.015625,0.0625 -0.046875,0.1875 l -1.265625,5.0625 c -0.09375,0.40625 -0.265625,0.71875 -1.078125,0.75 -0.046875,0 -0.171875,0.015625 -0.171875,0.1875 0,0.09375 0.0625,0.125 0.140625,0.125 0.3125,0 0.65625,-0.03125 1,-0.03125 C 1.890625,-0.03125 2.25,0 2.578125,0 c 0.046875,0 0.1875,0 0.1875,-0.203125 0,-0.109375 -0.109375,-0.109375 -0.1875,-0.109375 -0.5625,0 -0.671875,-0.203125 -0.671875,-0.4375 0,-0.0625 0,-0.125 0.03125,-0.234375 L 3.296875,-6.40625 H 3.3125 l 0.859375,6.171875 C 4.1875,-0.109375 4.203125,0 4.3125,0 4.421875,0 4.484375,-0.109375 4.53125,-0.171875 l 4.03125,-6.3125 h 0.015625 l -1.4375,5.703125 c -0.09375,0.390625 -0.109375,0.46875 -0.90625,0.46875 -0.15625,0 -0.265625,0 -0.265625,0.1875 C 5.96875,0 6.078125,0 6.109375,0 6.390625,0 7.0625,-0.03125 7.34375,-0.03125 7.75,-0.03125 8.1875,0 8.59375,0 8.65625,0 8.78125,0 8.78125,-0.203125 8.78125,-0.3125 8.6875,-0.3125 8.5,-0.3125 c -0.359375,0 -0.640625,0 -0.640625,-0.171875 0,-0.046875 0,-0.0625 0.046875,-0.25 z m 0,0"
               style="stroke:none" />
          </symbol>
        </g>
      </defs>
      <g
         transform="translate(-149.134,-127.953)"
         id="id-65e22bdd-f49c-4119-a6a8-d1058148a20e">
        <g
           id="id-bc8880e3-fd49-4a8b-a662-bef42538a798"
           style="fill:#000000;fill-opacity:1">
          <g
             transform="translate(148.712,134.765)"
             id="g1552">
            <path
               id="id-a5b1b1ff-04f6-46a1-b3dd-40f5d52e4b4a"
               d="M 9.234375,-6.046875 C 9.328125,-6.40625 9.34375,-6.5 10.09375,-6.5 c 0.21875,0 0.3125,0 0.3125,-0.203125 0,-0.109375 -0.09375,-0.109375 -0.265625,-0.109375 h -1.3125 c -0.265625,0 -0.28125,0 -0.390625,0.1875 L 4.796875,-0.9375 4.015625,-6.578125 C 3.984375,-6.8125 3.96875,-6.8125 3.703125,-6.8125 H 2.34375 c -0.1875,0 -0.296875,0 -0.296875,0.1875 0,0.125 0.09375,0.125 0.28125,0.125 0.140625,0 0.3125,0.015625 0.4375,0.015625 0.15625,0.03125 0.21875,0.046875 0.21875,0.171875 0,0.03125 -0.015625,0.0625 -0.046875,0.1875 l -1.265625,5.0625 c -0.09375,0.40625 -0.265625,0.71875 -1.078125,0.75 -0.046875,0 -0.171875,0.015625 -0.171875,0.1875 0,0.09375 0.0625,0.125 0.140625,0.125 0.3125,0 0.65625,-0.03125 1,-0.03125 C 1.890625,-0.03125 2.25,0 2.578125,0 c 0.046875,0 0.1875,0 0.1875,-0.203125 0,-0.109375 -0.109375,-0.109375 -0.1875,-0.109375 -0.5625,0 -0.671875,-0.203125 -0.671875,-0.4375 0,-0.0625 0,-0.125 0.03125,-0.234375 L 3.296875,-6.40625 H 3.3125 l 0.859375,6.171875 C 4.1875,-0.109375 4.203125,0 4.3125,0 4.421875,0 4.484375,-0.109375 4.53125,-0.171875 l 4.03125,-6.3125 h 0.015625 l -1.4375,5.703125 c -0.09375,0.390625 -0.109375,0.46875 -0.90625,0.46875 -0.15625,0 -0.265625,0 -0.265625,0.1875 C 5.96875,0 6.078125,0 6.109375,0 6.390625,0 7.0625,-0.03125 7.34375,-0.03125 7.75,-0.03125 8.1875,0 8.59375,0 8.65625,0 8.78125,0 8.78125,-0.203125 8.78125,-0.3125 8.6875,-0.3125 8.5,-0.3125 c -0.359375,0 -0.640625,0 -0.640625,-0.171875 0,-0.046875 0,-0.0625 0.046875,-0.25 z m 0,0"
               style="stroke:none" />
          </g>
        </g>
      </g>
    </g>
  </g>
</svg>
